<?xml version="1.0" encoding="UTF-8"?>
<svg xmlns="http://www.w3.org/2000/svg" xmlns:xlink="http://www.w3.org/1999/xlink" width="1440pt" height="809.999993pt" viewBox="0 0 1440 809.999993" version="1.2">
<defs>
<clipPath id="clip1">
  <path d="M 51.800781 171 L 110.300781 171 L 110.300781 229.5 L 51.800781 229.5 Z M 51.800781 171 "/>
</clipPath>
<clipPath id="clip2">
  <path d="M 1329.050781 171 L 1387.550781 171 L 1387.550781 229.5 L 1329.050781 229.5 Z M 1329.050781 171 "/>
</clipPath>
<clipPath id="clip3">
  <path d="M 51.800781 580.582031 L 110.300781 580.582031 L 110.300781 639.082031 L 51.800781 639.082031 Z M 51.800781 580.582031 "/>
</clipPath>
<clipPath id="clip4">
  <path d="M 1329.050781 580.582031 L 1387.550781 580.582031 L 1387.550781 639.082031 L 1329.050781 639.082031 Z M 1329.050781 580.582031 "/>
</clipPath>
<clipPath id="clip5">
  <path d="M 1006.9375 43.628906 L 1225.9375 43.628906 L 1225.9375 263.378906 L 1006.9375 263.378906 Z M 1006.9375 43.628906 "/>
</clipPath>
<clipPath id="clip6">
  <path d="M 196.246094 559.761719 L 394.996094 559.761719 L 394.996094 759.261719 L 196.246094 759.261719 Z M 196.246094 559.761719 "/>
</clipPath>
<clipPath id="clip7">
  <path d="M 1164.765625 436.90625 L 1287 436.90625 L 1287 559.90625 L 1164.765625 559.90625 Z M 1164.765625 436.90625 "/>
</clipPath>
</defs>
<g id="surface1">
<path style="fill:none;stroke-width:1;stroke-linecap:butt;stroke-linejoin:miter;stroke:rgb(14.509583%,96.469116%,38.42926%);stroke-opacity:1;stroke-miterlimit:4;" d="M 0.000490991 -0.000504501 L 216.777592 -0.000504501 " transform="matrix(0.00000000000000023,3.750432,-3.75,0.00000000000000023,1358.619202,-2.911998)"/>
<path style="fill:none;stroke-width:1;stroke-linecap:butt;stroke-linejoin:miter;stroke:rgb(14.509583%,96.469116%,38.42926%);stroke-opacity:1;stroke-miterlimit:4;" d="M 0.000490991 -0.000489286 L 216.777592 -0.000489286 " transform="matrix(0.00000000000000023,3.750432,-3.75,0.00000000000000023,81.369259,-2.911998)"/>
<g clip-path="url(#clip1)" clip-rule="nonzero">
<path style=" stroke:none;fill-rule:nonzero;fill:rgb(14.509583%,96.469116%,38.42926%);fill-opacity:1;" d="M 110.296875 200.246094 C 88.359375 204.285156 85.085938 207.558594 81.046875 229.496094 C 77.011719 207.558594 73.738281 204.285156 51.800781 200.246094 C 73.738281 196.210938 77.011719 192.9375 81.046875 171 C 85.085938 192.9375 88.359375 196.210938 110.296875 200.246094 Z M 110.296875 200.246094 "/>
</g>
<g clip-path="url(#clip2)" clip-rule="nonzero">
<path style=" stroke:none;fill-rule:nonzero;fill:rgb(14.509583%,96.469116%,38.42926%);fill-opacity:1;" d="M 1387.546875 200.246094 C 1365.609375 204.285156 1362.335938 207.558594 1358.296875 229.496094 C 1354.261719 207.558594 1350.988281 204.285156 1329.050781 200.246094 C 1350.988281 196.210938 1354.261719 192.9375 1358.296875 171 C 1362.335938 192.9375 1365.609375 196.210938 1387.546875 200.246094 Z M 1387.546875 200.246094 "/>
</g>
<g clip-path="url(#clip3)" clip-rule="nonzero">
<path style=" stroke:none;fill-rule:nonzero;fill:rgb(14.509583%,96.469116%,38.42926%);fill-opacity:1;" d="M 110.296875 609.832031 C 88.359375 613.867188 85.085938 617.144531 81.046875 639.078125 C 77.011719 617.144531 73.738281 613.867188 51.800781 609.832031 C 73.738281 605.792969 77.011719 602.519531 81.046875 580.582031 C 85.085938 602.519531 88.359375 605.792969 110.296875 609.832031 Z M 110.296875 609.832031 "/>
</g>
<g clip-path="url(#clip4)" clip-rule="nonzero">
<path style=" stroke:none;fill-rule:nonzero;fill:rgb(14.509583%,96.469116%,38.42926%);fill-opacity:1;" d="M 1387.546875 609.832031 C 1365.609375 613.867188 1362.335938 617.144531 1358.296875 639.078125 C 1354.261719 617.144531 1350.988281 613.867188 1329.050781 609.832031 C 1350.988281 605.792969 1354.261719 602.519531 1358.296875 580.582031 C 1362.335938 602.519531 1365.609375 605.792969 1387.546875 609.832031 Z M 1387.546875 609.832031 "/>
</g>
<g clip-path="url(#clip5)" clip-rule="nonzero">
<path style=" stroke:none;fill-rule:nonzero;fill:rgb(0%,0%,0%);fill-opacity:1;" d="M 1225.859375 145.054688 C 1225.867188 144.976562 1225.851562 144.898438 1225.824219 144.828125 C 1225.824219 144.824219 1225.824219 144.816406 1225.824219 144.8125 L 1204 87.507812 C 1203.996094 87.5 1203.988281 87.496094 1203.984375 87.488281 C 1203.949219 87.402344 1203.898438 87.324219 1203.820312 87.261719 L 1155.824219 49.089844 C 1155.75 49.027344 1155.660156 48.984375 1155.558594 48.964844 C 1155.550781 48.964844 1155.542969 48.964844 1155.535156 48.964844 L 1116.359375 43.636719 C 1116.285156 43.628906 1116.203125 43.632812 1116.125 43.652344 L 1097.453125 48.957031 L 1096.921875 48.957031 C 1096.816406 48.957031 1096.714844 48.988281 1096.628906 49.042969 C 1096.625 49.042969 1096.625 49.042969 1096.625 49.042969 L 1096.152344 49.328125 L 1050.191406 62.390625 C 1050.179688 62.394531 1050.167969 62.40625 1050.15625 62.410156 C 1050.09375 62.433594 1050.039062 62.464844 1049.984375 62.511719 C 1049.964844 62.527344 1049.945312 62.542969 1049.925781 62.5625 C 1049.917969 62.574219 1049.902344 62.578125 1049.894531 62.589844 L 1009.648438 114.828125 C 1009.636719 114.84375 1009.632812 114.863281 1009.621094 114.878906 C 1009.609375 114.902344 1009.589844 114.925781 1009.582031 114.949219 C 1009.574219 114.964844 1009.570312 114.980469 1009.566406 115 C 1009.554688 115.03125 1009.550781 115.058594 1009.542969 115.09375 C 1009.542969 115.113281 1009.53125 115.128906 1009.53125 115.148438 L 1006.996094 161.089844 C 1006.996094 161.128906 1006.996094 161.171875 1007.003906 161.210938 L 1010.714844 184.445312 C 1010.71875 184.476562 1010.734375 184.503906 1010.742188 184.53125 C 1010.75 184.550781 1010.746094 184.574219 1010.753906 184.589844 C 1010.757812 184.59375 1010.761719 184.597656 1010.765625 184.605469 C 1010.765625 184.609375 1010.765625 184.617188 1010.769531 184.625 L 1029.507812 220.308594 C 1029.539062 220.371094 1029.582031 220.425781 1029.636719 220.472656 L 1051.613281 239.898438 C 1051.648438 239.9375 1051.6875 239.972656 1051.730469 240 L 1077.144531 257.125 C 1077.214844 257.175781 1077.292969 257.203125 1077.375 257.21875 L 1117.246094 263.417969 L 1117.253906 263.417969 C 1117.257812 263.417969 1117.257812 263.417969 1117.261719 263.417969 C 1117.289062 263.421875 1117.320312 263.425781 1117.347656 263.425781 C 1117.347656 263.425781 1117.347656 263.425781 1117.351562 263.425781 C 1117.390625 263.425781 1117.429688 263.421875 1117.464844 263.414062 C 1117.464844 263.414062 1117.46875 263.414062 1117.46875 263.410156 C 1117.46875 263.410156 1117.472656 263.410156 1117.472656 263.410156 C 1117.472656 263.410156 1117.476562 263.410156 1117.476562 263.410156 C 1117.476562 263.410156 1117.480469 263.410156 1117.484375 263.410156 C 1117.488281 263.410156 1117.488281 263.40625 1117.488281 263.40625 L 1117.492188 263.40625 C 1117.496094 263.40625 1117.496094 263.40625 1117.496094 263.40625 C 1117.496094 263.40625 1117.5 263.402344 1117.5 263.402344 C 1117.503906 263.402344 1117.503906 263.402344 1117.503906 263.402344 L 1182.65625 244.363281 C 1182.679688 244.355469 1182.695312 244.332031 1182.714844 244.324219 C 1182.777344 244.296875 1182.828125 244.257812 1182.878906 244.210938 C 1182.898438 244.191406 1182.933594 244.183594 1182.953125 244.160156 L 1222.585938 191.894531 C 1222.648438 191.808594 1222.675781 191.714844 1222.691406 191.617188 C 1222.691406 191.605469 1222.703125 191.597656 1222.703125 191.585938 Z M 1221.589844 191.09375 L 1204.445312 195.425781 L 1224.484375 148.367188 Z M 1152.027344 184.425781 L 1088.863281 162.203125 L 1136.503906 127.898438 Z M 1136.503906 126.046875 L 1089 94.976562 L 1150.765625 77.308594 Z M 1135.828125 126.972656 L 1088.210938 161.257812 L 1088.210938 95.832031 Z M 1087.0625 161.457031 L 1033.023438 134.9375 L 1087.0625 95.894531 Z M 1098.765625 225.039062 L 1047.253906 196.175781 L 1087.25 163.4375 Z M 1088.382812 163.25 L 1151.683594 185.523438 L 1099.949219 225.117188 Z M 1152.375 186.433594 L 1155.710938 233.78125 L 1100.984375 225.769531 Z M 1153.113281 184.027344 L 1137.613281 127.605469 L 1190.316406 132.871094 Z M 1191.050781 133.8125 L 1202.738281 195.519531 L 1153.855469 184.957031 Z M 1203.675781 194.300781 L 1192.121094 133.292969 L 1224.523438 145.347656 Z M 1191.132812 131.078125 L 1152.9375 77.34375 L 1202.753906 88.148438 Z M 1190.167969 131.703125 L 1137.585938 126.449219 L 1151.828125 77.765625 Z M 1088.390625 93.957031 L 1097.335938 50.375 L 1150.023438 76.328125 Z M 1087.203125 94.019531 L 1046.789062 80.507812 L 1096.097656 50.703125 Z M 1086.394531 94.960938 L 1032.847656 133.648438 L 1045.835938 81.398438 Z M 1031.589844 133.957031 L 1010.9375 115.164062 L 1044.382812 82.484375 Z M 1044.917969 80.359375 L 1015.535156 109.070312 L 1049.007812 65.621094 Z M 1031.226562 135.183594 L 1011.804688 181.605469 L 1010.699219 116.496094 Z M 1031.757812 136.886719 L 1045.441406 195.390625 L 1012.042969 184.011719 Z M 1032.75 136.078125 L 1086.582031 162.5 L 1046.585938 195.238281 Z M 1098.066406 225.960938 L 1052.523438 238.789062 L 1046.960938 197.328125 Z M 1099.246094 226.820312 L 1116.21875 261.839844 L 1053.929688 239.585938 Z M 1117.5625 261.980469 L 1100.542969 226.863281 L 1154.859375 234.820312 Z M 1156.832031 233.316406 L 1153.5 186.054688 L 1202.175781 196.574219 Z M 1201.980469 198.207031 L 1182.1875 243.089844 L 1157.488281 234.257812 Z M 1203.875 196.753906 L 1220.6875 192.503906 L 1184.996094 239.570312 Z M 1192.058594 132.042969 L 1203.554688 89.566406 L 1224.300781 144.039062 Z M 1155.886719 50.605469 L 1201.179688 86.628906 L 1152.253906 76.023438 Z M 1116.324219 44.789062 L 1146.984375 48.957031 L 1101.652344 48.957031 Z M 1154.800781 50.105469 L 1151.152344 75.605469 L 1099.386719 50.105469 Z M 1046.371094 79.421875 L 1050.816406 63.40625 L 1092.425781 51.582031 Z M 1008.144531 161.089844 L 1009.796875 131.09375 L 1010.566406 176.261719 Z M 1030.472656 219.679688 L 1015.269531 190.722656 L 1048.351562 235.488281 Z M 1012.832031 185.492188 L 1045.714844 196.695312 L 1051.179688 237.382812 Z M 1056.136719 241.589844 L 1111.449219 261.351562 L 1077.675781 256.101562 Z M 1156.425781 235.097656 L 1180.640625 243.757812 L 1120.34375 261.378906 Z M 1156.425781 235.097656 "/>
</g>
<g clip-path="url(#clip6)" clip-rule="nonzero">
<path style=" stroke:none;fill-rule:nonzero;fill:rgb(0%,0%,0%);fill-opacity:1;" d="M 394.921875 651.839844 C 394.925781 651.769531 394.910156 651.699219 394.886719 651.632812 C 394.886719 651.628906 394.890625 651.625 394.886719 651.621094 L 375.082031 599.59375 C 375.078125 599.589844 375.070312 599.585938 375.066406 599.578125 C 375.035156 599.5 374.988281 599.425781 374.921875 599.375 L 331.363281 564.714844 C 331.296875 564.660156 331.210938 564.621094 331.121094 564.605469 C 331.113281 564.605469 331.109375 564.605469 331.101562 564.605469 L 295.550781 559.765625 C 295.480469 559.757812 295.40625 559.765625 295.335938 559.78125 L 278.390625 564.597656 L 277.910156 564.597656 C 277.8125 564.597656 277.722656 564.625 277.640625 564.675781 L 277.210938 564.933594 L 235.503906 576.792969 C 235.488281 576.796875 235.480469 576.808594 235.46875 576.8125 C 235.410156 576.832031 235.363281 576.863281 235.316406 576.902344 C 235.296875 576.917969 235.277344 576.929688 235.261719 576.949219 C 235.25 576.957031 235.238281 576.960938 235.230469 576.972656 L 198.707031 624.398438 C 198.695312 624.414062 198.695312 624.429688 198.683594 624.445312 C 198.671875 624.464844 198.65625 624.484375 198.648438 624.507812 C 198.640625 624.523438 198.636719 624.539062 198.632812 624.554688 C 198.625 624.582031 198.617188 624.609375 198.613281 624.636719 C 198.609375 624.65625 198.601562 624.671875 198.601562 624.6875 L 196.300781 666.398438 C 196.300781 666.433594 196.300781 666.472656 196.308594 666.507812 L 199.675781 687.601562 C 199.679688 687.628906 199.695312 687.652344 199.703125 687.679688 C 199.707031 687.695312 199.707031 687.714844 199.714844 687.734375 C 199.714844 687.738281 199.71875 687.738281 199.722656 687.746094 C 199.722656 687.75 199.722656 687.757812 199.726562 687.761719 L 216.730469 720.15625 C 216.761719 720.214844 216.800781 720.265625 216.847656 720.308594 L 236.789062 737.941406 C 236.824219 737.980469 236.859375 738.011719 236.898438 738.035156 L 259.960938 753.585938 C 260.023438 753.628906 260.097656 753.652344 260.171875 753.667969 L 296.355469 759.292969 L 296.359375 759.296875 C 296.363281 759.296875 296.363281 759.296875 296.367188 759.296875 C 296.394531 759.300781 296.417969 759.300781 296.445312 759.300781 C 296.445312 759.300781 296.445312 759.300781 296.449219 759.300781 C 296.484375 759.300781 296.519531 759.296875 296.554688 759.292969 C 296.554688 759.292969 296.554688 759.292969 296.554688 759.289062 C 296.558594 759.289062 296.558594 759.289062 296.558594 759.289062 C 296.558594 759.289062 296.5625 759.289062 296.5625 759.289062 C 296.5625 759.289062 296.566406 759.289062 296.570312 759.285156 C 296.574219 759.289062 296.574219 759.285156 296.574219 759.285156 L 296.578125 759.285156 C 296.578125 759.285156 296.582031 759.285156 296.582031 759.285156 C 296.582031 759.285156 296.582031 759.28125 296.582031 759.28125 C 296.585938 759.28125 296.585938 759.28125 296.589844 759.28125 L 355.714844 741.996094 C 355.734375 741.992188 355.746094 741.96875 355.765625 741.960938 C 355.824219 741.933594 355.871094 741.902344 355.914062 741.859375 C 355.933594 741.839844 355.964844 741.835938 355.980469 741.8125 L 391.949219 694.363281 C 392.007812 694.285156 392.03125 694.199219 392.042969 694.113281 C 392.042969 694.101562 392.054688 694.09375 392.054688 694.082031 Z M 391.042969 693.636719 L 375.488281 697.570312 L 393.671875 654.847656 Z M 327.917969 687.582031 L 270.59375 667.40625 L 313.828125 636.265625 Z M 313.832031 634.585938 L 270.71875 606.375 L 326.773438 590.335938 Z M 313.214844 635.425781 L 270.003906 666.550781 L 270.003906 607.152344 Z M 268.960938 666.730469 L 219.921875 642.65625 L 268.960938 607.207031 Z M 279.582031 724.453125 L 232.832031 698.25 L 269.132812 668.527344 Z M 270.160156 668.359375 L 327.605469 688.578125 L 280.65625 724.523438 Z M 328.234375 689.40625 L 331.261719 732.390625 L 281.59375 725.117188 Z M 328.902344 687.222656 L 314.835938 636 L 362.664062 640.777344 Z M 363.332031 641.632812 L 373.9375 697.65625 L 329.574219 688.066406 Z M 374.789062 696.550781 L 364.300781 641.164062 L 393.707031 652.105469 Z M 363.40625 639.152344 L 328.742188 590.371094 L 373.949219 600.175781 Z M 362.53125 639.71875 L 314.8125 634.949219 L 327.738281 590.75 Z M 270.164062 605.453125 L 278.285156 565.886719 L 326.097656 589.445312 Z M 269.089844 605.507812 L 232.414062 593.242188 L 277.160156 566.183594 Z M 268.355469 606.359375 L 219.761719 641.484375 L 231.550781 594.050781 Z M 218.621094 641.765625 L 199.878906 624.703125 L 230.230469 595.035156 Z M 230.714844 593.105469 L 204.050781 619.171875 L 234.429688 579.726562 Z M 218.292969 642.878906 L 200.667969 685.023438 L 199.664062 625.914062 Z M 218.773438 644.425781 L 231.191406 697.535156 L 200.882812 687.207031 Z M 219.671875 643.691406 L 268.523438 667.675781 L 232.230469 697.398438 Z M 278.945312 725.292969 L 237.617188 736.9375 L 232.566406 699.296875 Z M 280.019531 726.070312 L 295.421875 757.863281 L 238.894531 737.660156 Z M 296.640625 757.992188 L 281.195312 726.109375 L 330.488281 733.332031 Z M 332.277344 731.964844 L 329.253906 689.0625 L 373.425781 698.609375 Z M 373.25 700.09375 L 355.289062 740.84375 L 332.875 732.824219 Z M 374.96875 698.773438 L 390.226562 694.917969 L 357.835938 737.644531 Z M 364.246094 640.027344 L 374.679688 601.464844 L 393.503906 650.917969 Z M 331.417969 566.09375 L 372.523438 598.800781 L 328.121094 589.167969 Z M 295.515625 560.8125 L 323.339844 564.597656 L 282.203125 564.597656 Z M 330.433594 565.640625 L 327.125 588.789062 L 280.144531 565.640625 Z M 232.03125 592.253906 L 236.070312 577.714844 L 273.828125 566.980469 Z M 197.34375 666.398438 L 198.84375 639.167969 L 199.539062 680.171875 Z M 217.609375 719.589844 L 203.808594 693.300781 L 233.832031 733.941406 Z M 201.597656 688.550781 L 231.4375 698.71875 L 236.398438 735.660156 Z M 240.898438 739.480469 L 291.09375 757.421875 L 260.445312 752.652344 Z M 331.910156 733.585938 L 353.882812 741.449219 L 299.164062 757.441406 Z M 331.910156 733.585938 "/>
</g>
<g clip-path="url(#clip7)" clip-rule="nonzero">
<path style=" stroke:none;fill-rule:nonzero;fill:rgb(0%,0%,0%);fill-opacity:1;" d="M 1286.96875 493.675781 C 1286.972656 493.632812 1286.964844 493.589844 1286.949219 493.546875 C 1286.949219 493.546875 1286.953125 493.542969 1286.949219 493.539062 L 1274.769531 461.464844 C 1274.765625 461.460938 1274.761719 461.457031 1274.757812 461.453125 C 1274.738281 461.40625 1274.710938 461.359375 1274.667969 461.328125 L 1247.878906 439.960938 C 1247.835938 439.925781 1247.785156 439.902344 1247.730469 439.890625 C 1247.722656 439.890625 1247.71875 439.890625 1247.714844 439.890625 L 1225.847656 436.910156 C 1225.804688 436.902344 1225.761719 436.90625 1225.71875 436.917969 L 1215.296875 439.886719 L 1215 439.886719 C 1214.9375 439.886719 1214.882812 439.90625 1214.835938 439.933594 C 1214.832031 439.933594 1214.832031 439.933594 1214.832031 439.933594 L 1214.566406 440.09375 L 1188.914062 447.40625 C 1188.90625 447.40625 1188.902344 447.414062 1188.894531 447.417969 C 1188.859375 447.429688 1188.828125 447.449219 1188.800781 447.472656 C 1188.789062 447.480469 1188.777344 447.492188 1188.765625 447.5 C 1188.761719 447.507812 1188.753906 447.511719 1188.75 447.515625 L 1166.28125 476.757812 C 1166.277344 476.765625 1166.273438 476.777344 1166.269531 476.785156 C 1166.261719 476.796875 1166.25 476.808594 1166.246094 476.824219 C 1166.242188 476.832031 1166.238281 476.84375 1166.238281 476.851562 C 1166.230469 476.871094 1166.226562 476.886719 1166.226562 476.90625 C 1166.222656 476.914062 1166.21875 476.925781 1166.21875 476.933594 L 1164.804688 502.652344 C 1164.800781 502.671875 1164.804688 502.695312 1164.804688 502.71875 L 1166.878906 515.722656 C 1166.878906 515.742188 1166.890625 515.753906 1166.894531 515.773438 C 1166.898438 515.78125 1166.898438 515.792969 1166.902344 515.804688 C 1166.902344 515.808594 1166.90625 515.808594 1166.90625 515.8125 C 1166.90625 515.816406 1166.90625 515.820312 1166.910156 515.824219 L 1177.367188 535.796875 C 1177.386719 535.832031 1177.410156 535.863281 1177.441406 535.886719 L 1189.707031 546.761719 C 1189.726562 546.785156 1189.75 546.804688 1189.773438 546.820312 L 1203.957031 556.40625 C 1203.996094 556.429688 1204.042969 556.449219 1204.089844 556.457031 L 1226.34375 559.925781 L 1226.347656 559.925781 C 1226.347656 559.925781 1226.347656 559.925781 1226.351562 559.925781 C 1226.367188 559.929688 1226.382812 559.929688 1226.398438 559.929688 C 1226.398438 559.929688 1226.398438 559.929688 1226.402344 559.929688 C 1226.421875 559.929688 1226.445312 559.929688 1226.464844 559.921875 C 1226.464844 559.921875 1226.46875 559.921875 1226.46875 559.921875 C 1226.46875 559.921875 1226.472656 559.921875 1226.472656 559.921875 C 1226.472656 559.921875 1226.476562 559.921875 1226.476562 559.921875 C 1226.476562 559.921875 1226.480469 559.921875 1226.476562 559.921875 C 1226.476562 559.921875 1226.480469 559.921875 1226.480469 559.921875 L 1226.480469 559.917969 C 1226.480469 559.917969 1226.484375 559.917969 1226.484375 559.917969 C 1226.484375 559.917969 1226.488281 559.917969 1226.488281 559.917969 L 1262.855469 549.261719 C 1262.867188 549.257812 1262.875 549.242188 1262.886719 549.238281 C 1262.921875 549.222656 1262.949219 549.203125 1262.976562 549.175781 C 1262.992188 549.164062 1263.007812 549.160156 1263.019531 549.148438 L 1285.144531 519.890625 C 1285.179688 519.84375 1285.195312 519.792969 1285.199219 519.738281 C 1285.203125 519.730469 1285.207031 519.726562 1285.207031 519.71875 Z M 1284.585938 519.445312 L 1275.015625 521.871094 L 1286.203125 495.53125 Z M 1245.757812 515.710938 L 1210.5 503.273438 L 1237.09375 484.074219 Z M 1237.09375 483.035156 L 1210.578125 465.644531 L 1245.054688 455.753906 Z M 1236.714844 483.554688 L 1210.136719 502.746094 L 1210.136719 466.125 Z M 1209.496094 502.855469 L 1179.332031 488.011719 L 1209.496094 466.160156 Z M 1216.027344 538.445312 L 1187.273438 522.289062 L 1209.601562 503.964844 Z M 1210.230469 503.859375 L 1245.566406 516.324219 L 1216.6875 538.488281 Z M 1245.953125 516.835938 L 1247.816406 543.339844 L 1217.265625 538.851562 Z M 1246.363281 515.488281 L 1237.710938 483.910156 L 1267.128906 486.855469 Z M 1267.539062 487.382812 L 1274.0625 521.921875 L 1246.777344 516.007812 Z M 1274.585938 521.242188 L 1268.136719 487.09375 L 1286.222656 493.839844 Z M 1267.585938 485.851562 L 1246.265625 455.777344 L 1274.070312 461.820312 Z M 1267.046875 486.203125 L 1237.695312 483.261719 L 1245.648438 456.011719 Z M 1210.234375 465.074219 L 1215.230469 440.679688 L 1244.640625 455.207031 Z M 1209.574219 465.109375 L 1187.015625 457.546875 L 1214.539062 440.863281 Z M 1209.121094 465.636719 L 1179.234375 487.289062 L 1186.484375 458.046875 Z M 1178.53125 487.464844 L 1167.003906 476.945312 L 1185.671875 458.652344 Z M 1185.96875 457.464844 L 1169.570312 473.53125 L 1188.253906 449.214844 Z M 1178.328125 488.148438 L 1167.488281 514.132812 L 1166.871094 477.691406 Z M 1178.625 489.105469 L 1186.261719 521.847656 L 1167.621094 515.480469 Z M 1179.175781 488.652344 L 1209.226562 503.441406 L 1186.902344 521.765625 Z M 1215.636719 538.960938 L 1190.214844 546.140625 L 1187.109375 522.933594 Z M 1216.296875 539.441406 L 1225.769531 559.042969 L 1191 546.585938 Z M 1226.519531 559.121094 L 1217.019531 539.464844 L 1247.339844 543.917969 Z M 1248.4375 543.078125 L 1246.578125 516.625 L 1273.75 522.511719 Z M 1273.640625 523.425781 L 1262.59375 548.550781 L 1248.804688 543.605469 Z M 1274.699219 522.613281 L 1284.082031 520.234375 L 1264.160156 546.578125 Z M 1268.101562 486.394531 L 1274.519531 462.617188 L 1286.101562 493.105469 Z M 1247.910156 440.808594 L 1273.195312 460.972656 L 1245.882812 455.035156 Z M 1225.828125 437.554688 L 1242.941406 439.886719 L 1217.640625 439.886719 Z M 1247.304688 440.53125 L 1245.269531 454.800781 L 1216.375 440.53125 Z M 1186.78125 456.9375 L 1189.261719 447.972656 L 1212.488281 441.355469 Z M 1165.441406 502.652344 L 1166.367188 485.863281 L 1166.796875 511.140625 Z M 1177.90625 535.445312 L 1169.421875 519.238281 L 1187.886719 544.292969 Z M 1168.058594 516.308594 L 1186.414062 522.578125 L 1189.464844 545.351562 Z M 1192.234375 547.707031 L 1223.109375 558.769531 L 1204.257812 555.832031 Z M 1248.214844 544.074219 L 1261.730469 548.921875 L 1228.074219 558.785156 Z M 1248.214844 544.074219 "/>
</g>
</g>
</svg>
