<?xml version="1.0" standalone="no"?>
<!DOCTYPE svg PUBLIC "-//W3C//DTD SVG 20010904//EN"
 "http://www.w3.org/TR/2001/REC-SVG-20010904/DTD/svg10.dtd">
<svg version="1.0" xmlns="http://www.w3.org/2000/svg"
 width="493.000000pt" height="493.000000pt" viewBox="0 0 493.000000 493.000000"
 preserveAspectRatio="xMidYMid meet">
<metadata>
Created by potrace 1.14, written by Peter Selinger 2001-2017
</metadata>
<g transform="translate(0.000000,493.000000) scale(0.100000,-0.100000)"
fill="#000000" stroke="none">
<path d="M1330 3710 c0 -3 -28 -6 -63 -7 -100 -4 -127 -7 -127 -14 0 -4 -13
-6 -30 -5 -16 1 -30 -1 -30 -6 0 -4 -6 -8 -13 -8 -18 0 -151 -41 -157 -49 -3
-3 -14 -8 -25 -9 -11 -2 -23 -8 -26 -14 -3 -5 -12 -10 -20 -11 -8 -2 -32 -13
-52 -25 -21 -12 -42 -22 -47 -22 -5 0 -15 -6 -22 -13 -7 -6 -31 -24 -53 -39
-22 -14 -51 -34 -64 -45 -39 -29 -214 -203 -204 -203 4 0 3 -4 -4 -8 -21 -13
-124 -173 -118 -183 4 -5 2 -9 -4 -9 -10 0 -66 -109 -62 -123 0 -4 -6 -21 -14
-37 -9 -16 -16 -33 -16 -37 -2 -12 -10 -35 -20 -60 -6 -16 -5 -23 4 -23 9 0 9
-2 1 -8 -7 -4 -15 -25 -18 -47 -4 -22 -10 -58 -13 -80 -9 -53 -8 -280 0 -330
4 -22 10 -58 13 -79 3 -22 9 -47 14 -57 5 -9 6 -19 3 -23 -3 -3 -1 -6 5 -6 6
0 9 -7 6 -15 -4 -8 -1 -22 6 -30 7 -8 10 -15 6 -15 -4 0 3 -19 15 -42 12 -24
22 -45 21 -48 -1 -11 50 -113 63 -127 9 -8 13 -18 10 -22 -2 -5 4 -16 15 -26
11 -10 20 -22 20 -28 0 -5 12 -24 28 -42 15 -18 36 -45 47 -60 29 -40 195
-203 195 -191 0 3 9 -3 19 -13 21 -21 186 -124 195 -122 4 1 27 -10 52 -24 25
-14 53 -27 62 -29 9 -1 29 -8 43 -14 33 -13 104 -33 143 -39 16 -3 39 -8 50
-12 12 -4 36 -7 54 -6 17 1 32 -1 32 -4 0 -11 235 -8 242 3 5 7 8 7 8 -2 0 -7
4 -11 9 -8 4 3 23 8 42 10 19 3 52 8 74 12 22 4 48 7 58 8 9 0 17 5 17 10 0 5
3 7 6 3 3 -3 23 1 44 8 21 7 41 11 44 8 3 -4 6 -1 6 5 0 7 8 12 18 12 9 0 40
11 69 24 28 13 54 22 57 18 3 -3 6 -1 6 5 0 5 23 20 50 33 28 13 50 27 50 32
0 4 9 8 20 8 11 0 20 4 20 9 0 5 23 23 50 41 28 18 57 42 65 54 9 11 18 20 21
18 3 -2 26 17 51 42 36 37 42 47 29 52 -9 3 -14 9 -12 13 3 4 -15 28 -39 54
-24 27 -43 50 -42 52 1 2 -7 14 -18 27 -30 34 -85 118 -85 129 0 5 -4 9 -8 9
-10 0 -94 167 -112 223 -11 35 -13 37 -26 20 -7 -10 -14 -24 -14 -30 0 -7 -4
-13 -10 -13 -5 0 -10 -7 -10 -15 0 -7 -6 -18 -13 -22 -7 -4 -22 -20 -34 -36
-12 -15 -45 -47 -75 -71 -110 -91 -249 -146 -375 -150 -24 0 -43 -5 -43 -11 0
-7 -3 -7 -8 0 -4 6 -20 11 -37 12 -53 3 -109 10 -130 18 -11 4 -33 11 -50 17
-90 30 -177 87 -250 164 -77 81 -85 91 -78 98 4 3 2 6 -4 6 -11 0 -66 115 -66
137 0 7 -4 13 -9 13 -6 0 -8 6 -5 13 2 6 -2 26 -9 43 -9 20 -11 67 -9 145 4
124 6 137 26 189 7 19 12 38 11 43 -1 4 3 7 8 7 5 0 9 3 8 8 -4 14 13 52 23
52 6 0 8 4 4 9 -3 5 2 16 10 24 8 9 15 18 15 21 0 15 124 146 139 146 6 0 11
5 11 10 0 6 7 10 15 10 8 0 15 4 15 9 0 11 117 68 177 86 116 34 286 35 373 2
8 -3 32 -11 53 -17 20 -6 37 -15 37 -19 0 -4 10 -7 22 -8 11 -1 24 -6 27 -10
3 -4 19 -15 35 -23 74 -38 246 -243 246 -294 0 -6 4 -16 8 -21 20 -23 38 -107
48 -220 3 -38 8 -73 10 -76 2 -4 6 -37 10 -75 3 -37 7 -72 10 -76 3 -5 7 -18
10 -31 2 -12 6 -31 8 -42 6 -31 59 -169 66 -175 9 -7 24 -43 22 -52 -1 -5 2
-8 6 -8 5 0 18 -19 30 -43 11 -23 29 -51 39 -62 10 -11 30 -39 45 -62 33 -50
127 -147 183 -188 22 -17 42 -33 45 -36 3 -4 41 -29 85 -58 44 -28 85 -54 90
-58 28 -21 75 -43 75 -36 0 4 4 2 9 -5 4 -7 14 -14 22 -16 8 -1 24 -7 35 -14
25 -13 107 -42 138 -48 12 -2 32 -6 46 -9 14 -4 35 -8 48 -11 12 -2 34 -6 50
-10 15 -3 57 -8 95 -11 53 -4 67 -2 68 8 0 17 0 559 0 576 -1 6 -9 12 -18 12
-37 0 -93 8 -99 14 -3 3 -12 3 -20 0 -8 -3 -14 0 -14 5 0 6 -9 9 -20 7 -11 -2
-22 0 -25 5 -3 4 -13 7 -23 6 -9 -2 -19 0 -22 3 -3 4 -35 19 -72 35 -36 15
-69 34 -72 42 -3 8 -11 14 -18 14 -25 0 -137 129 -177 203 -22 41 -38 77 -35
79 2 3 -2 20 -10 39 -15 35 -15 207 -1 279 12 59 13 65 15 65 1 0 3 8 5 19 7
38 75 162 108 199 19 20 32 37 29 37 -3 0 14 14 37 30 57 42 148 90 155 83 3
-4 6 -2 6 4 0 9 51 25 70 22 3 0 19 5 35 11 17 6 50 13 75 15 25 2 47 5 50 6
3 1 13 1 23 0 20 -3 18 -32 19 331 0 146 -3 271 -7 277 -3 6 -12 8 -18 4 -7
-4 -23 -8 -37 -9 -53 -5 -126 -13 -145 -17 -11 -3 -40 -8 -65 -12 -25 -4 -52
-9 -60 -10 -13 -3 -96 -25 -110 -30 -3 -1 -20 -6 -37 -10 -18 -4 -33 -11 -33
-16 0 -5 -3 -8 -7 -7 -44 9 -244 -122 -349 -227 l-80 -81 -25 27 c-14 15 -44
43 -67 62 -22 19 -38 37 -35 41 4 3 1 6 -7 6 -7 0 -29 14 -49 30 -48 41 -54
45 -71 53 -8 4 -28 16 -45 27 -31 20 -151 81 -160 81 -2 0 -29 11 -60 24 -30
14 -55 23 -55 20 0 -2 -18 2 -39 10 -22 7 -52 16 -68 19 -15 3 -39 7 -53 10
-14 3 -47 7 -73 8 -26 2 -47 5 -47 8 0 3 -36 5 -80 5 -44 0 -80 -2 -80 -5z"/>
<path d="M4720 3701 c-14 -3 -36 -6 -50 -6 -14 0 -28 -4 -32 -10 -5 -6 -8 -5
-8 3 0 8 -5 10 -12 5 -7 -4 -24 -9 -38 -9 -14 -1 -25 -3 -25 -4 0 -1 -16 -4
-35 -7 -50 -6 -195 -42 -228 -55 -15 -6 -32 -12 -38 -13 -22 -5 -129 -59 -132
-67 -2 -4 -7 -6 -12 -3 -4 2 -19 -6 -34 -20 -14 -13 -26 -22 -26 -19 0 29
-237 -206 -277 -273 -14 -24 -29 -43 -35 -43 -5 0 -6 -4 -3 -10 3 -5 2 -10 -4
-10 -5 0 -12 -13 -16 -30 -4 -16 -10 -30 -15 -30 -8 0 -45 -80 -42 -92 1 -5
-3 -8 -8 -8 -6 0 -10 -4 -10 -9 0 -5 -4 -20 -9 -33 -5 -13 -10 -27 -11 -33 -1
-5 -8 -26 -15 -45 -13 -35 -23 -73 -31 -120 -3 -14 -7 -32 -11 -40 -3 -8 -6
-26 -7 -40 0 -14 -5 -31 -10 -39 -7 -10 -6 -12 4 -6 9 6 10 2 5 -16 -6 -19
-10 -202 -5 -219 1 -3 3 -23 4 -45 2 -22 4 -40 5 -40 2 0 4 -18 7 -40 2 -22 6
-51 10 -65 4 -14 8 -38 10 -54 2 -16 9 -35 15 -42 6 -8 9 -14 5 -14 -3 0 3
-22 13 -49 10 -28 16 -52 13 -55 -3 -4 0 -6 6 -6 7 0 12 -6 12 -14 0 -16 60
-135 77 -154 6 -6 15 -21 18 -32 3 -11 11 -20 16 -20 5 0 9 -5 9 -11 0 -12 67
-97 111 -141 15 -14 25 -29 21 -32 -3 -3 0 -6 7 -6 6 0 23 -11 36 -24 40 -41
145 -111 220 -148 100 -50 127 -62 168 -71 6 -1 18 -6 25 -10 6 -5 16 -6 21
-2 5 3 16 -1 24 -9 8 -8 17 -13 19 -10 3 3 25 0 49 -6 104 -25 156 -33 223
-31 33 1 62 4 65 7 3 3 6 138 6 300 0 287 0 294 -20 295 -45 3 -80 7 -82 9 -2
1 -12 4 -23 5 -11 1 -23 4 -27 5 -5 2 -12 4 -18 5 -5 2 -12 4 -15 5 -3 1 -15
3 -27 6 -33 6 -135 53 -155 71 -10 9 -18 13 -18 9 0 -8 -53 38 -105 91 -65 68
-125 177 -139 256 -3 12 -5 22 -7 22 -1 0 -2 25 -3 55 -1 30 -5 61 -10 69 -6
9 -5 12 2 7 7 -4 9 5 8 26 -2 18 -1 38 3 43 3 6 6 19 7 30 4 44 28 135 43 160
3 6 6 16 7 23 2 8 10 22 20 33 9 10 14 19 11 19 -12 0 106 126 145 157 16 12
98 56 111 59 4 1 9 3 12 4 3 1 8 3 13 4 4 1 16 7 27 13 11 6 23 11 28 11 4 0
20 3 35 6 52 10 107 18 142 20 l35 2 0 293 c0 185 -3 298 -10 306 -6 8 -20 10
-35 6z"/>
</g>
</svg>
