<?xml version="1.0" encoding="UTF-8"?>
<svg xmlns="http://www.w3.org/2000/svg" xmlns:xlink="http://www.w3.org/1999/xlink" width="1440pt" height="809.999993pt" viewBox="0 0 1440 809.999993" version="1.2">
<defs>
<filter id="alpha" filterUnits="objectBoundingBox" x="0%" y="0%" width="100%" height="100%">
  <feColorMatrix type="matrix" in="SourceGraphic" values="0 0 0 0 1 0 0 0 0 1 0 0 0 0 1 0 0 0 1 0"/>
</filter>
<mask id="mask0">
  <g filter="url(#alpha)">
<rect x="0" y="0" width="1440" height="809.999993" style="fill:rgb(98.81897%,71.369934%,7.839966%);fill-opacity:0.3;stroke:none;"/>
  </g>
</mask>
<clipPath id="clip2">
  <path d="M 0.542969 1.136719 L 219.542969 1.136719 L 219.542969 220.886719 L 0.542969 220.886719 Z M 0.542969 1.136719 "/>
</clipPath>
<clipPath id="clip1">
  <rect x="0" y="0" width="220" height="222"/>
</clipPath>
<g id="surface5" clip-path="url(#clip1)">
<g clip-path="url(#clip2)" clip-rule="nonzero">
<!-- Right Big One -->
<path style=" stroke:none;fill-rule:nonzero;fill:rgb(98.81897%,71.369934%,7.839966%);fill-opacity:1;" d="M 219.46875 102.5625 C 219.472656 102.484375 219.457031 102.40625 219.429688 102.335938 C 219.429688 102.328125 219.433594 102.324219 219.429688 102.320312 L 197.605469 45.015625 C 197.601562 45.007812 197.59375 45.003906 197.589844 44.996094 C 197.554688 44.910156 197.503906 44.828125 197.425781 44.769531 L 149.429688 6.59375 C 149.355469 6.535156 149.265625 6.492188 149.164062 6.472656 C 149.15625 6.472656 149.148438 6.472656 149.144531 6.472656 L 109.964844 1.144531 C 109.890625 1.132812 109.808594 1.140625 109.734375 1.160156 L 91.0625 6.464844 L 90.53125 6.464844 C 90.421875 6.464844 90.320312 6.496094 90.234375 6.546875 C 90.234375 6.546875 90.234375 6.546875 90.230469 6.546875 L 89.757812 6.835938 L 43.800781 19.894531 C 43.785156 19.902344 43.773438 19.914062 43.761719 19.917969 C 43.699219 19.941406 43.644531 19.972656 43.59375 20.015625 C 43.570312 20.035156 43.550781 20.050781 43.53125 20.070312 C 43.523438 20.078125 43.511719 20.085938 43.5 20.097656 L 3.253906 72.335938 C 3.242188 72.351562 3.238281 72.371094 3.230469 72.386719 C 3.214844 72.410156 3.195312 72.429688 3.1875 72.457031 C 3.179688 72.472656 3.175781 72.488281 3.171875 72.503906 C 3.160156 72.535156 3.15625 72.566406 3.152344 72.597656 C 3.148438 72.617188 3.136719 72.636719 3.136719 72.65625 L 0.601562 118.597656 C 0.601562 118.636719 0.601562 118.679688 0.609375 118.71875 L 4.320312 141.953125 C 4.324219 141.984375 4.339844 142.007812 4.351562 142.039062 C 4.355469 142.058594 4.355469 142.078125 4.363281 142.097656 C 4.363281 142.101562 4.367188 142.105469 4.371094 142.113281 C 4.375 142.117188 4.375 142.125 4.378906 142.128906 L 23.113281 177.8125 C 23.144531 177.875 23.191406 177.929688 23.242188 177.980469 L 45.21875 197.40625 C 45.253906 197.445312 45.292969 197.480469 45.335938 197.507812 L 70.75 214.632812 C 70.820312 214.679688 70.898438 214.710938 70.984375 214.722656 L 110.851562 220.921875 L 110.859375 220.925781 C 110.863281 220.925781 110.863281 220.925781 110.867188 220.925781 C 110.894531 220.929688 110.925781 220.933594 110.953125 220.933594 C 110.953125 220.933594 110.953125 220.933594 110.957031 220.933594 C 110.996094 220.933594 111.035156 220.929688 111.074219 220.917969 C 111.078125 220.917969 111.078125 220.917969 111.078125 220.917969 C 111.078125 220.917969 111.078125 220.917969 111.082031 220.917969 C 111.085938 220.917969 111.089844 220.917969 111.089844 220.914062 C 111.089844 220.914062 111.089844 220.914062 111.09375 220.914062 C 111.09375 220.917969 111.097656 220.914062 111.09375 220.914062 C 111.09375 220.914062 111.097656 220.914062 111.097656 220.914062 C 111.097656 220.914062 111.101562 220.914062 111.101562 220.914062 C 111.101562 220.914062 111.101562 220.910156 111.101562 220.910156 C 111.101562 220.910156 111.101562 220.910156 111.105469 220.910156 C 111.105469 220.914062 111.105469 220.910156 111.105469 220.910156 C 111.109375 220.910156 111.109375 220.910156 111.113281 220.910156 L 176.261719 201.871094 C 176.285156 201.863281 176.300781 201.839844 176.324219 201.828125 C 176.386719 201.800781 176.433594 201.765625 176.484375 201.71875 C 176.507812 201.695312 176.539062 201.691406 176.558594 201.667969 L 216.191406 149.402344 C 216.257812 149.316406 216.285156 149.222656 216.296875 149.125 C 216.296875 149.113281 216.308594 149.105469 216.308594 149.09375 Z M 215.195312 148.601562 L 198.050781 152.933594 L 218.09375 105.875 Z M 145.636719 141.933594 L 82.46875 119.707031 L 130.109375 85.40625 Z M 130.113281 83.554688 L 82.605469 52.484375 L 144.371094 34.816406 Z M 129.433594 84.480469 L 81.816406 118.765625 L 81.816406 53.339844 Z M 80.667969 118.964844 L 26.628906 92.445312 L 80.667969 53.398438 Z M 92.371094 182.546875 L 40.859375 153.683594 L 80.855469 120.945312 Z M 81.988281 120.757812 L 145.289062 143.027344 L 93.554688 182.625 Z M 145.980469 143.941406 L 149.320312 191.289062 L 94.589844 183.277344 Z M 146.71875 141.535156 L 131.222656 85.113281 L 183.921875 90.378906 Z M 184.65625 91.320312 L 196.34375 153.027344 L 147.460938 142.464844 Z M 197.28125 151.808594 L 185.726562 90.800781 L 218.128906 102.855469 Z M 184.738281 88.585938 L 146.542969 34.851562 L 196.359375 45.652344 Z M 183.773438 89.210938 L 131.191406 83.957031 L 145.4375 35.273438 Z M 81.996094 51.464844 L 90.941406 7.882812 L 143.628906 33.835938 Z M 80.8125 51.527344 L 40.394531 38.015625 L 89.703125 8.210938 Z M 80 52.464844 L 26.457031 91.152344 L 39.441406 38.90625 Z M 25.195312 91.464844 L 4.542969 72.671875 L 37.992188 39.992188 Z M 38.523438 37.867188 L 9.140625 66.578125 L 42.617188 23.128906 Z M 24.835938 92.691406 L 5.414062 139.113281 L 4.304688 74.003906 Z M 25.363281 94.394531 L 39.046875 152.894531 L 5.652344 141.515625 Z M 26.355469 93.585938 L 80.1875 120.007812 L 40.191406 152.746094 Z M 91.671875 183.46875 L 46.132812 196.296875 L 40.566406 154.835938 Z M 92.855469 184.328125 L 109.824219 219.34375 L 47.535156 197.089844 Z M 111.167969 219.488281 L 94.148438 184.371094 L 148.464844 192.324219 Z M 150.4375 190.820312 L 147.105469 143.5625 L 195.78125 154.082031 Z M 195.585938 155.710938 L 175.792969 200.597656 L 151.09375 191.765625 Z M 197.484375 154.261719 L 214.292969 150.011719 L 178.601562 197.074219 Z M 185.664062 89.550781 L 197.164062 47.074219 L 217.90625 101.546875 Z M 149.492188 8.113281 L 194.789062 44.136719 L 145.859375 33.527344 Z M 109.929688 2.296875 L 140.59375 6.464844 L 95.257812 6.464844 Z M 148.40625 7.613281 L 144.757812 33.113281 L 92.992188 7.613281 Z M 39.976562 36.925781 L 44.421875 20.910156 L 86.03125 9.085938 Z M 1.75 118.597656 L 3.40625 88.601562 L 4.171875 133.769531 Z M 24.082031 177.1875 L 8.875 148.230469 L 41.957031 192.996094 Z M 6.4375 142.996094 L 39.320312 154.199219 L 44.785156 194.886719 Z M 49.742188 199.097656 L 105.054688 218.859375 L 71.285156 213.609375 Z M 150.035156 192.605469 L 174.246094 201.265625 L 113.949219 218.882812 Z M 150.035156 192.605469 "/>
</g>
</g>
<mask id="mask1">
  <g filter="url(#alpha)">
<!-- bottom One -->
<rect x="0" y="0" width="1440" height="809.999993" style="fill:rgb(98.81897%,71.369934%,7.839966%);fill-opacity:.3;stroke:none;"/>
  </g>
</mask>
<clipPath id="clip4">
  <path d="M 0.71875 0.816406 L 199.46875 0.816406 L 199.46875 200.316406 L 0.71875 200.316406 Z M 0.71875 0.816406 "/>
</clipPath>
<clipPath id="clip3">
  <rect x="0" y="0" width="200" height="201"/>
</clipPath>
<g id="surface8" clip-path="url(#clip3)">
<g clip-path="url(#clip4)" clip-rule="nonzero">
<path style=" stroke:none;fill-rule:nonzero;fill:rgb(98.81897%,71.369934%,7.839966%);fill-opacity:.5;" d="M 199.394531 92.894531 C 199.398438 92.820312 199.382812 92.75 199.363281 92.6875 C 199.359375 92.683594 199.363281 92.679688 199.359375 92.671875 L 179.554688 40.648438 C 179.550781 40.640625 179.542969 40.636719 179.539062 40.628906 C 179.507812 40.554688 179.460938 40.480469 179.394531 40.425781 L 135.835938 5.769531 C 135.769531 5.714844 135.683594 5.675781 135.59375 5.660156 C 135.585938 5.660156 135.582031 5.65625 135.574219 5.65625 L 100.023438 0.820312 C 99.953125 0.8125 99.878906 0.816406 99.808594 0.835938 L 82.863281 5.652344 L 82.382812 5.652344 C 82.285156 5.652344 82.195312 5.679688 82.113281 5.726562 L 81.683594 5.988281 L 39.976562 17.84375 C 39.960938 17.847656 39.953125 17.859375 39.941406 17.863281 C 39.882812 17.886719 39.835938 17.914062 39.789062 17.953125 C 39.769531 17.96875 39.75 17.984375 39.734375 18 C 39.722656 18.011719 39.710938 18.015625 39.703125 18.027344 L 3.179688 65.453125 C 3.167969 65.464844 3.167969 65.484375 3.15625 65.5 C 3.144531 65.519531 3.128906 65.539062 3.121094 65.5625 C 3.113281 65.574219 3.109375 65.589844 3.105469 65.605469 C 3.097656 65.632812 3.089844 65.664062 3.085938 65.691406 C 3.085938 65.710938 3.074219 65.722656 3.074219 65.742188 L 0.773438 107.449219 C 0.773438 107.488281 0.773438 107.523438 0.78125 107.5625 L 4.148438 128.65625 C 4.152344 128.683594 4.167969 128.707031 4.175781 128.734375 C 4.179688 128.75 4.179688 128.769531 4.1875 128.785156 C 4.1875 128.789062 4.191406 128.792969 4.195312 128.796875 C 4.195312 128.804688 4.195312 128.808594 4.199219 128.816406 L 21.203125 161.210938 C 21.234375 161.265625 21.273438 161.316406 21.320312 161.359375 L 41.265625 178.996094 C 41.296875 179.03125 41.332031 179.0625 41.371094 179.089844 L 64.433594 194.636719 C 64.496094 194.679688 64.570312 194.707031 64.644531 194.71875 L 100.828125 200.347656 L 100.832031 200.347656 C 100.835938 200.347656 100.835938 200.347656 100.839844 200.347656 C 100.867188 200.355469 100.890625 200.355469 100.917969 200.355469 C 100.917969 200.355469 100.917969 200.355469 100.921875 200.355469 C 100.957031 200.355469 100.992188 200.351562 101.027344 200.34375 C 101.03125 200.34375 101.03125 200.34375 101.03125 200.34375 C 101.03125 200.34375 101.035156 200.34375 101.035156 200.34375 C 101.035156 200.339844 101.039062 200.339844 101.042969 200.339844 C 101.046875 200.339844 101.046875 200.339844 101.046875 200.339844 L 101.050781 200.339844 C 101.050781 200.339844 101.050781 200.335938 101.050781 200.335938 C 101.050781 200.335938 101.054688 200.335938 101.054688 200.335938 C 101.054688 200.339844 101.054688 200.335938 101.054688 200.335938 C 101.058594 200.335938 101.058594 200.335938 101.0625 200.332031 L 160.1875 183.050781 C 160.207031 183.042969 160.21875 183.023438 160.238281 183.011719 C 160.296875 182.988281 160.34375 182.953125 160.386719 182.910156 C 160.40625 182.890625 160.4375 182.886719 160.453125 182.867188 L 196.421875 135.414062 C 196.480469 135.339844 196.503906 135.253906 196.515625 135.164062 C 196.519531 135.152344 196.527344 135.148438 196.527344 135.136719 Z M 195.515625 134.6875 L 179.960938 138.621094 L 198.144531 95.898438 Z M 132.390625 128.636719 L 75.070312 108.460938 L 118.300781 77.316406 Z M 118.304688 75.636719 L 75.191406 47.429688 L 131.246094 31.390625 Z M 117.6875 76.476562 L 74.476562 107.605469 L 74.476562 48.207031 Z M 73.433594 107.785156 L 24.394531 83.707031 L 73.433594 48.261719 Z M 84.054688 165.507812 L 37.304688 139.304688 L 73.605469 109.582031 Z M 74.632812 109.410156 L 132.078125 129.628906 L 85.128906 165.578125 Z M 132.707031 130.460938 L 135.734375 173.445312 L 86.066406 166.167969 Z M 133.375 128.273438 L 119.308594 77.050781 L 167.136719 81.832031 Z M 167.804688 82.6875 L 178.410156 138.707031 L 134.046875 129.117188 Z M 179.261719 137.601562 L 168.773438 82.214844 L 198.179688 93.15625 Z M 167.878906 80.203125 L 133.214844 31.421875 L 178.421875 41.230469 Z M 167.003906 80.773438 L 119.285156 76.003906 L 132.210938 31.804688 Z M 74.636719 46.503906 L 82.757812 6.9375 L 130.570312 30.5 Z M 73.5625 46.5625 L 36.886719 34.292969 L 81.632812 7.234375 Z M 72.828125 47.414062 L 24.234375 82.535156 L 36.023438 35.105469 Z M 23.09375 82.820312 L 4.351562 65.757812 L 34.703125 36.085938 Z M 35.1875 34.15625 L 8.523438 60.222656 L 38.902344 20.777344 Z M 22.765625 83.929688 L 5.140625 126.078125 L 4.136719 66.96875 Z M 23.246094 85.480469 L 35.664062 138.589844 L 5.355469 128.257812 Z M 24.144531 84.746094 L 72.996094 108.730469 L 36.703125 138.453125 Z M 83.417969 166.34375 L 42.089844 177.988281 L 37.039062 140.347656 Z M 84.492188 167.125 L 99.894531 198.914062 L 43.367188 178.710938 Z M 101.113281 199.042969 L 85.667969 167.164062 L 134.960938 174.386719 Z M 136.75 173.019531 L 133.726562 130.113281 L 177.898438 139.664062 Z M 177.722656 141.144531 L 159.761719 181.894531 L 137.347656 173.875 Z M 179.441406 139.828125 L 194.699219 135.96875 L 162.308594 178.695312 Z M 168.71875 81.082031 L 179.152344 42.519531 L 197.976562 91.96875 Z M 135.890625 7.148438 L 176.996094 39.851562 L 132.59375 30.222656 Z M 99.988281 1.867188 L 127.816406 5.652344 L 86.675781 5.652344 Z M 134.90625 6.695312 L 131.597656 29.84375 L 84.617188 6.695312 Z M 36.503906 33.308594 L 40.542969 18.765625 L 78.300781 8.03125 Z M 1.816406 107.453125 L 3.316406 80.21875 L 4.011719 121.222656 Z M 22.082031 160.640625 L 8.28125 134.351562 L 38.304688 174.992188 Z M 6.070312 129.601562 L 35.910156 139.773438 L 40.871094 176.710938 Z M 45.371094 180.53125 L 95.566406 198.472656 L 64.917969 193.707031 Z M 136.382812 174.636719 L 158.355469 182.5 L 103.636719 198.496094 Z M 136.382812 174.636719 "/>
</g>
</g>
<mask id="mask2">
  <g filter="url(#alpha)">
<!-- smaller one on left and right side -->
<rect x="0" y="0" width="1440" height="809.999993" style="fill:rgb(98.81897%,71.369934%,7.839966%);fill-opacity:0.6;stroke:none;"/>
  </g>
</mask>
<clipPath id="clip6">
  <path d="M 0.46875 0.445312 L 122.71875 0.445312 L 122.71875 123.445312 L 0.46875 123.445312 Z M 0.46875 0.445312 "/>
</clipPath>
<clipPath id="clip5">
  <rect x="0" y="0" width="124" height="124"/>
</clipPath>
<g id="surface11" clip-path="url(#clip5)">
<g clip-path="url(#clip6)" clip-rule="nonzero">
<path style="stroke:none;fill-rule:nonzero;fill:rgb(98.81897%,71.369934%,7.839966%);fill-opacity:1;" d="M 122.671875 57.214844 C 122.675781 57.167969 122.667969 57.125 122.652344 57.085938 C 122.652344 57.082031 122.652344 57.082031 122.652344 57.078125 L 110.46875 25.003906 C 110.46875 24.996094 110.464844 24.996094 110.460938 24.992188 C 110.441406 24.945312 110.414062 24.898438 110.371094 24.867188 L 83.578125 3.5 C 83.539062 3.464844 83.488281 3.441406 83.429688 3.429688 C 83.425781 3.429688 83.421875 3.429688 83.417969 3.429688 L 61.550781 0.445312 C 61.507812 0.441406 61.464844 0.445312 61.421875 0.457031 L 51 3.425781 L 50.703125 3.425781 C 50.640625 3.425781 50.585938 3.441406 50.535156 3.472656 L 50.269531 3.632812 L 24.617188 10.941406 C 24.609375 10.945312 24.605469 10.953125 24.597656 10.957031 C 24.5625 10.96875 24.53125 10.984375 24.503906 11.011719 C 24.492188 11.019531 24.480469 11.027344 24.46875 11.039062 C 24.464844 11.046875 24.457031 11.046875 24.449219 11.054688 L 1.984375 40.292969 C 1.980469 40.304688 1.976562 40.3125 1.972656 40.324219 C 1.964844 40.335938 1.953125 40.347656 1.949219 40.363281 C 1.945312 40.371094 1.941406 40.382812 1.941406 40.390625 C 1.933594 40.40625 1.929688 40.425781 1.929688 40.441406 C 1.925781 40.453125 1.921875 40.460938 1.921875 40.472656 L 0.503906 66.1875 C 0.503906 66.210938 0.503906 66.234375 0.507812 66.257812 L 2.582031 79.261719 C 2.582031 79.277344 2.59375 79.292969 2.597656 79.308594 C 2.601562 79.320312 2.597656 79.332031 2.605469 79.34375 C 2.605469 79.34375 2.609375 79.347656 2.609375 79.351562 C 2.609375 79.355469 2.609375 79.359375 2.613281 79.359375 L 13.070312 99.335938 C 13.089844 99.367188 13.113281 99.398438 13.144531 99.425781 L 25.410156 110.300781 C 25.429688 110.320312 25.453125 110.339844 25.476562 110.355469 L 39.660156 119.941406 C 39.699219 119.96875 39.746094 119.984375 39.792969 119.992188 L 62.046875 123.464844 L 62.050781 123.464844 C 62.050781 123.464844 62.050781 123.464844 62.054688 123.464844 C 62.070312 123.46875 62.085938 123.46875 62.101562 123.46875 C 62.101562 123.46875 62.101562 123.46875 62.105469 123.46875 C 62.125 123.46875 62.148438 123.464844 62.167969 123.460938 C 62.167969 123.460938 62.167969 123.460938 62.171875 123.460938 C 62.171875 123.460938 62.171875 123.460938 62.175781 123.460938 C 62.175781 123.460938 62.175781 123.460938 62.179688 123.457031 C 62.179688 123.460938 62.183594 123.457031 62.179688 123.457031 C 62.179688 123.457031 62.183594 123.457031 62.183594 123.457031 C 62.183594 123.457031 62.1875 123.457031 62.1875 123.457031 C 62.1875 123.457031 62.191406 123.457031 62.191406 123.453125 L 98.558594 112.800781 C 98.570312 112.796875 98.578125 112.78125 98.589844 112.777344 C 98.625 112.761719 98.652344 112.738281 98.679688 112.714844 C 98.691406 112.703125 98.710938 112.699219 98.722656 112.683594 L 120.847656 83.429688 C 120.882812 83.382812 120.898438 83.328125 120.902344 83.277344 C 120.902344 83.269531 120.910156 83.265625 120.910156 83.257812 Z M 120.289062 82.980469 L 110.71875 85.40625 L 121.90625 59.066406 Z M 81.460938 79.25 L 46.203125 66.8125 L 72.796875 47.609375 Z M 72.796875 46.574219 L 46.277344 29.183594 L 80.757812 19.292969 Z M 72.417969 47.09375 L 45.839844 66.285156 L 45.839844 29.660156 Z M 45.199219 66.394531 L 15.035156 51.550781 L 45.199219 29.695312 Z M 51.730469 101.980469 L 22.976562 85.828125 L 45.300781 67.503906 Z M 45.933594 67.398438 L 81.269531 79.863281 L 52.390625 102.027344 Z M 81.65625 80.375 L 83.515625 106.875 L 52.96875 102.390625 Z M 82.066406 79.027344 L 73.414062 47.445312 L 102.832031 50.394531 Z M 103.242188 50.921875 L 109.765625 85.460938 L 82.480469 79.546875 Z M 110.289062 84.777344 L 103.839844 50.628906 L 121.925781 57.375 Z M 103.289062 49.390625 L 81.96875 19.3125 L 109.773438 25.359375 Z M 102.75 49.742188 L 73.398438 46.800781 L 81.351562 19.550781 Z M 45.9375 28.613281 L 50.933594 4.21875 L 80.34375 18.746094 Z M 45.277344 28.648438 L 22.71875 21.085938 L 50.242188 4.402344 Z M 44.824219 29.171875 L 14.9375 50.828125 L 22.1875 21.585938 Z M 14.234375 51.003906 L 2.707031 40.484375 L 21.375 22.191406 Z M 21.671875 21 L 5.269531 37.070312 L 23.957031 12.75 Z M 14.03125 51.6875 L 3.191406 77.671875 L 2.574219 41.230469 Z M 14.328125 52.640625 L 21.964844 85.386719 L 3.324219 79.019531 Z M 14.878906 52.191406 L 44.929688 66.976562 L 22.605469 85.300781 Z M 51.339844 102.5 L 25.917969 109.679688 L 22.8125 86.472656 Z M 52 102.980469 L 61.472656 122.582031 L 26.703125 110.125 Z M 62.222656 122.660156 L 52.722656 103.003906 L 83.042969 107.457031 Z M 84.140625 106.613281 L 82.28125 80.160156 L 109.453125 86.050781 Z M 109.34375 86.960938 L 98.296875 112.085938 L 84.507812 107.144531 Z M 110.402344 86.148438 L 119.785156 83.773438 L 99.863281 110.113281 Z M 103.804688 49.929688 L 110.222656 26.15625 L 121.800781 56.644531 Z M 83.613281 4.347656 L 108.898438 24.511719 L 81.585938 18.574219 Z M 61.53125 1.09375 L 78.644531 3.425781 L 53.339844 3.425781 Z M 83.007812 4.066406 L 80.972656 18.339844 L 52.078125 4.066406 Z M 22.484375 20.476562 L 24.964844 11.511719 L 48.191406 4.894531 Z M 1.144531 66.1875 L 2.070312 49.398438 L 2.496094 74.679688 Z M 13.609375 98.984375 L 5.125 82.773438 L 23.589844 107.832031 Z M 3.761719 79.847656 L 22.117188 86.117188 L 25.167969 108.890625 Z M 27.933594 111.246094 L 58.808594 122.308594 L 39.960938 119.367188 Z M 83.917969 107.613281 L 97.429688 112.460938 L 63.773438 122.320312 Z M 83.917969 107.613281 "/>
</g>
</g>
</defs>
<g id="surface1">
<use xlink:href="#surface5" transform="matrix(1,0,0,1,942,43)" mask="url(#mask0)"/>
<use xlink:href="#surface8" transform="matrix(1,0,0,1,204,480)" mask="url(#mask1)"/>
<use xlink:href="#surface11" transform="matrix(1,0,0,1,1195,391)" mask="url(#mask2)"/>
</g>
</svg>
